<?xml version="1.0" standalone="no"?>
<svg width="64" height="64" viewBox="0 0 384 384" version="1.1" xmlns="http://www.w3.org/2000/svg">
  <path d="M380 252c6 -17 5 -38 -3 -57c-10 -25 -31 -43 -51 -43c-5 0 -10 1 -15 3c-22 10 -30 45 -17 79c10 28 31 46 51 46c5 0 10 -1 14 -3c10 -4 17 -13 21 -25zM362 202c6 15 7 31 2 44c-2 5 -5 12 -12 15c-2 1 -4 2 -7 2c-13 0 -28 -15 -36 -36c-9 -25 -6 -50 8 -56 c2 -1 5 -1 8 -1c14 0 29 13 37 32zM90 234c13 -34 5 -69 -17 -79c-5 -2 -10 -3 -15 -3c-20 0 -41 18 -51 43c-8 19 -9 40 -3 57c4 12 11 21 21 25c4 2 9 3 14 3c20 0 41 -18 51 -46zM67 171c14 6 17 31 8 56c-8 21 -23 36 -36 36c-3 0 -5 -1 -7 -2c-7 -3 -10 -10 -12 -15 c-5 -13 -4 -29 2 -44c8 -19 23 -32 37 -32c3 0 6 0 8 1zM134 237c-28 1 -52 32 -56 69c-2 23 4 45 16 60c8 10 19 17 31 18h6c27 -1 46 -29 50 -67c3 -24 -1 -48 -13 -63c-8 -9 -17 -15 -28 -16c-2 0 -4 -1 -6 -1zM107 356c-10 -12 -14 -29 -12 -48c3 -29 21 -53 40 -54h3 c6 1 12 4 17 10c10 12 12 31 10 51c-3 29 -17 52 -35 53h-3c-9 -1 -16 -7 -20 -12zM192 208c64 0 128 -76 128 -149c0 -22 -11 -40 -22 -47c-13 -9 -23 -12 -42 -12c-23 0 -29 8 -40 15c-8 5 -14 10 -24 10s-16 -5 -24 -10c-11 -7 -17 -15 -40 -15c-19 0 -29 3 -42 12 c-11 7 -22 25 -22 47c0 73 64 149 128 149zM290 27c6 4 14 16 14 32c0 30 -14 64 -36 91c-11 13 -23 24 -36 31c-13 8 -27 11 -40 11s-27 -3 -40 -11c-13 -7 -25 -18 -36 -31c-22 -27 -36 -61 -36 -91c0 -16 8 -28 14 -32c11 -7 18 -10 34 -10c14 0 19 4 26 9c2 1 4 3 6 4 c9 6 18 12 32 12s23 -6 32 -12c2 -1 4 -3 6 -4c7 -5 12 -9 26 -9c16 0 23 3 34 10zM244 238c-11 1 -20 7 -28 16c-12 15 -16 39 -13 63c4 38 23 66 50 67h7c12 -1 22 -8 30 -18c12 -15 18 -37 16 -60c-4 -37 -28 -67 -56 -68h-6zM219 315c-2 -20 0 -39 10 -51 c5 -6 11 -9 17 -10h3c19 1 38 25 41 54c2 19 -3 36 -13 48c-4 5 -10 11 -19 12h-4c-18 -1 -32 -24 -35 -53z" transform="matrix(1,0,0,-1,0,384)"/>
</svg>